<?xml version="1.0" encoding="utf-8"?>
<!-- Generator: Adobe Illustrator 27.5.0, SVG Export Plug-In . SVG Version: 6.00 Build 0)  -->
<svg version="1.1" id="Layer_1" xmlns="http://www.w3.org/2000/svg" xmlns:xlink="http://www.w3.org/1999/xlink" x="0px" y="0px"
	 viewBox="0 0 500 500" style="enable-background:new 0 0 500 500;" xml:space="preserve">
<g>
	<g>
		<path style="fill:#CCCCCC;" d="M169.24,160.445c4.679,4.792,9.897,10.703,11.563,17.752c0.957,4.053,0.735,8.448-1.442,13.263
			c0.649-0.421,29.349,21.234,29.503,22.245c0.315,1.338,0.123,3.096,0.513,4.748c-0.004-0.098,13.086,15.275,18.495,38.552
			c0.315,1.351,0.522,2.359,0.704,3.139c6.654,28.292,29.047,44.137,49.652,115.325c-2.114-15.972-0.585-33.246-3.904-48.245
			c-3.427-15.546-10.759-18.33-17.316-47.2c-1.561-6.891-2.688-13.852-3.597-20.819c-0.004-0.034-0.011-0.069-0.019-0.103
			c-7.147-32.565-33.238-67.623-57.022-89.232c-23.878-22.48-45.45-31.512-45.731-32.126c5.022,7.766,15.801,9.744,18.185,19.886
			C169.03,158.506,169.171,159.442,169.24,160.445z"/>
		<path style="fill:#CCCCCC;" d="M154.825,115.477c30.805,12.733,72.678,47.932,73.163,50.366c0.321,1.363-0.009,3.152,0.286,4.403
			c1.287,5.437,8.837,4.755,11.071,14.271c0.647,2.747,0.863,5.697,1.507,8.429c0.485,1.704,35.287,55.527,35.676,57.622
			c0.669,2.866-0.447,6.212,0.181,8.899c1.242,5.004,25.142,25.931,29.738,46.286c0.136,0.589,0.391,1.912,0.719,3.334
			c1.26,4.701,38.7,101.574,35.032,85.995c-3.838-17.111-12.368-35.818,7.803-34.325c-8.615-5.932-13.581-13.306-14.729-18.443
			c-0.3-1.333,0.007-3.143,1.057-3.737c-2.316-1.905-3.395-3.653-3.782-5.374c-0.993-4.417,2.554-8.599,1.304-14.147
			c-0.693-3.094-4.122-3.875-5.186-6.098c-35.355-73.15-45.825-99.643-51.466-113.275c-5.655-13.271-6.48-13.682-22.867-26.328
			c-4.11-3.162-2.574-11.724-7.773-15.78c-8.119-6.296-16.177-10.688-24.228-15.585c-8.044-4.831-9.344-16.87-18.74-17.875
			c-10.528-1.053-20.704-5.15-29.179-8.549C170.547,113.962,159.923,119.383,154.825,115.477z"/>
		<path style="fill:#CCCCCC;" d="M191.837,102.033c13.827,16.144,61.531,30.916,70.53,48.773
			c27.431,50.54,47.656,69.209,53.705,72.701c-1.208,5.081,23.911,33.066,24.366,35.768c0.012-0.013-9.892-19.607-20.286-65.06
			c-0.531-2.532-13.645-0.503-15.087-6.542c-0.266-1.15,0.947-2.748,0.615-4.183c-0.144-0.679-8.104-5.086-9.714-11.957
			c-0.86-3.7-0.679-7.442-1.56-11.237c-2.244-9.725-9.774-3.864-13.671-9.156c-12.263-17.722-49.326-38.092-49.234-37.361
			c-0.124-0.528-0.252-6.33-0.91-9.143c-0.81-3.461-2.653-6.024-7.157-4.855C212.315,102.7,201.892,103.229,191.837,102.033z"/>
	</g>
	<path d="M231.419,265.063c-5.317-22.847-18.275-38.155-18.275-38.155c-0.386-1.659-0.197-3.415-0.51-4.758
		c-0.104-0.449-28.69-24.556-29.416-24.829c2.17-4.451,2.381-8.806,1.409-12.983c-1.69-7.262-6.957-13.985-11.725-19.735
		c-0.073-1.011-0.221-1.971-0.433-2.885c-0.709-3.046-2.152-5.584-3.957-7.892c-10.808-9.092-18.253-14.564-18.514-14.905
		c5.278,9.333,16.304,13.899,18.746,24.393c0.213,0.914,0.361,1.874,0.433,2.885c4.768,5.75,10.035,12.473,11.725,19.735
		c0.972,4.177,0.761,8.532-1.41,12.983c0.726,0.273,29.311,24.38,29.415,24.829c0.313,1.344,0.124,3.099,0.51,4.758
		c0,0,12.958,15.308,18.274,38.155c0.31,1.334,0.513,2.331,0.692,3.101c6.543,28.115,28.605,41.578,49.202,106.91
		c-0.685-5.158-0.959-10.583-1.142-16.048c-19.097-53.082-38.306-66.549-44.335-92.458
		C231.932,267.394,231.729,266.397,231.419,265.063z"/>
	<path d="M309.477,315.25c-4.518-19.413-28.155-37.656-29.362-42.842c-0.616-2.648,0.493-6.094-0.164-8.918
		c-0.362-1.554-34.762-54.609-35.282-56.846c-0.64-2.751-0.858-5.707-1.502-8.475c-2.224-9.556-9.727-9.268-11.017-14.813
		c-0.295-1.27,0.03-3.034-0.292-4.417c-0.45-1.933-35.977-35.022-66.761-58.139c-2.937-0.247-6.012-0.677-8.561-1.98
		c31.767,23.109,71.124,59.68,71.598,61.716c0.322,1.383-0.004,3.147,0.292,4.417c1.29,5.546,8.794,5.257,11.017,14.813
		c0.644,2.768,0.861,5.724,1.502,8.476c0.521,2.237,34.92,55.292,35.282,56.846c0.657,2.824-0.452,6.27,0.164,8.918
		c1.207,5.187,24.844,23.429,29.362,42.843c2.637,11.331,38.716,96.374,35.379,82.035c-1.209-5.195-2.976-10.045-4.093-15.604
		c-10.067-22.488-26.081-61.452-26.858-64.793C309.859,317.109,309.609,315.819,309.477,315.25z"/>
	<path d="M339.422,259.582c0.177,0.325,0.273,0.488,0.273,0.488C339.669,259.959,339.566,259.787,339.422,259.582z"/>
	<path d="M262.397,162.533c27.096,50.893,46.933,65.496,53.019,67.782c-1.223,5.456,21.294,25.403,24.006,29.266
		c-0.643-1.177-2.394-4.555-4.832-10.558c-7.26-7.356-16.233-16.808-15.449-20.305c-6.086-2.286-25.922-16.888-53.019-67.782
		c-8.236-15.469-50.722-35.074-68.198-55.656c-2.287-0.713-4.563-1.534-6.829-2.47C205.945,124.866,253.62,146.048,262.397,162.533z
		"/>
	<path style="fill:#676767;" d="M343.146,257.985c0.177,0.325,0.273,0.488,0.273,0.488
		C343.394,258.363,343.29,258.191,343.146,257.985z"/>
	<g>
		<path style="fill:#333333;" d="M256.61,285.786c-1.54-6.617-2.645-13.408-3.532-20.249c-0.004-0.033-0.01-0.067-0.018-0.1
			c-10.31-44.303-57.769-89.086-84.546-111.611c1.804,2.308,3.248,4.847,3.957,7.892c0.213,0.914,0.361,1.874,0.433,2.885
			c4.768,5.75,10.035,12.473,11.725,19.735c0.972,4.177,0.761,8.532-1.409,12.983c0.726,0.273,29.311,24.38,29.416,24.829
			c0.313,1.343,0.124,3.099,0.51,4.758c0,0,12.958,15.308,18.275,38.155c0.31,1.334,0.513,2.331,0.692,3.101
			c6.029,25.909,25.238,39.376,44.335,92.458c-0.368-10.973-0.368-22.107-2.569-31.566
			C270.464,314.386,263.07,313.546,256.61,285.786z"/>
		<path style="fill:#333333;" d="M348.606,361.524c-8.312-3.346-13.044-9.339-14.146-14.076c-0.295-1.268,0.025-3.176,1.09-4.06
			c-2.33-1.301-3.407-2.794-3.788-4.431c-0.978-4.202,2.628-9.351,1.4-14.631c-0.683-2.936-4.14-2.846-5.199-4.836
			c-70.209-131.929-41.183-105.914-73.653-130.763c-4.08-3.122-2.554-11.691-7.72-15.763c-8.07-6.36-16.093-11.113-24.14-16.669
			c-8.046-5.556-9.376-17.672-18.821-19.933c-10.589-2.535-20.92-8.639-29.607-14.046c-1.865-1.161-5.281-1.211-8.925-1.519
			c30.785,23.118,66.312,56.206,66.761,58.139c0.322,1.383-0.004,3.147,0.292,4.417c1.291,5.546,8.794,5.257,11.017,14.813
			c0.644,2.768,0.862,5.724,1.502,8.475c0.52,2.237,34.92,55.292,35.282,56.846c0.657,2.824-0.453,6.27,0.164,8.918
			c1.207,5.187,24.844,23.429,29.362,42.842c0.132,0.569,0.382,1.859,0.702,3.234c0.778,3.341,16.791,42.306,26.858,64.793
			C333.938,367.855,339.549,364.994,348.606,361.524z"/>
		<path style="fill:#333333;" d="M266.122,160.937c27.096,50.894,46.933,65.496,53.019,67.782
			c-0.784,3.497,8.189,12.949,15.449,20.305c-3.813-9.389-9.306-25.207-14.883-49.176c-0.538-2.313-13.683,2.377-15.072-3.591
			c-0.259-1.113,0.958-2.927,0.635-4.316c-0.145-0.62-8.05-3.838-9.621-10.588c-0.84-3.612-0.646-7.398-1.509-11.104
			c-2.202-9.464-9.702-2.802-13.551-7.897c-12.06-15.966-49.005-39.049-49.005-39.049c-0.126-0.543-0.28-6.346-0.954-9.242
			c-0.831-3.571-2.692-6.353-7.233-5.936c-8.782,0.807-17.207-0.268-25.474-2.844C215.4,125.862,257.886,145.468,266.122,160.937z"
			/>
	</g>
</g>
</svg>
